<svg width="20.363281" height="16.000000" viewBox="0 0 20.3633 16" fill="none" xmlns="http://www.w3.org/2000/svg" xmlns:xlink="http://www.w3.org/1999/xlink">
	<desc>
			Created with Pixso.
	</desc>
	<path id="path" d="M17.9395 0C18.6094 0 19.1816 0.236816 19.6543 0.710449C20.127 1.18359 20.3633 1.75488 20.3633 2.42432L20.3633 13.5762C20.3633 14.2456 20.127 14.8169 19.6543 15.29C19.1816 15.7637 18.6094 16 17.9395 16L2.42383 16C1.75586 16 1.18359 15.7637 0.710938 15.29C0.236328 14.8169 0 14.2456 0 13.5762L0 2.42432C0 1.75488 0.236328 1.18359 0.710938 0.710449C1.18359 0.236816 1.75586 0 2.42383 0L17.9395 0ZM1.93945 2.70898L1.93945 13.5762C1.93945 13.8994 2.10156 14.061 2.42383 14.061L17.9395 14.061C18.2637 14.061 18.4238 13.8994 18.4238 13.5762L18.4238 2.73291L11.625 8.57715C10.8477 9.24561 10.0449 9.27734 9.2168 8.67236L1.93945 2.70898ZM16.373 1.93945L4.06055 1.93945L10.3613 7.10645L16.373 1.93945Z" fill-rule="nonzero" fill="#8E8E8E"/>
	<defs/>
</svg>
