<svg xmlns="http://www.w3.org/2000/svg" xmlns:xlink="http://www.w3.org/1999/xlink" width="26" height="25.004150390625" viewBox="0 0 26 25.004150390625" fill="none"><g opacity="1"  transform="translate(0 0)  rotate(0)"><mask id="bg-mask-0" fill="white"><use xlink:href="#path_0"></use></mask><g mask="url(#bg-mask-0)" ><g opacity="1"  transform="translate(0 0)  rotate(0)"><path id="路径 1" fill-rule="evenodd" style="fill:#000000" opacity="1" d="M0.322266 8.12415L0.322266 25.0041L5.91227 25.0041L5.91227 8.12415L0.322266 8.12415Z"></path><path id="路径 2" fill-rule="evenodd" style="fill:#000000" opacity="1" d="M3.15 0C2.21 0 1.45 0.27 0.87 0.83C0.29 1.38 0 2.07 0 2.91C0 3.74 0.28 4.43 0.85 4.99C1.41 5.55 2.16 5.82 3.08 5.82L3.11 5.82C4.06 5.82 4.83 5.55 5.41 4.99C5.99 4.43 6.27 3.74 6.26 2.91C6.25 2.07 5.96 1.38 5.4 0.83C4.84 0.28 4.09 0 3.15 0Z"></path><path id="路径 3" fill-rule="evenodd" style="fill:#000000" opacity="1" d="M25.9993,15.3294v0v9.67h-5.57v-9.02c0,-1.2 -0.23,-2.13 -0.68,-2.81c-0.46,-0.67 -1.17,-1.01 -2.15,-1.01c-0.71,0 -1.3,0.2 -1.78,0.59c-0.48,0.39 -0.84,0.87 -1.08,1.45c-0.12,0.34 -0.18,0.8 -0.18,1.38v9.42h-5.57004c0.02,-4.53 0.03,-8.2 0.03,-11.02c0,-2.81 0,-4.49003 -0.01,-5.04003l-0.02,-0.82h5.57004v2.40003c-0.01,0.02 -0.02,0.04 -0.04,0.05h0.04v-0.05c0.21,-0.34 0.43,-0.64003 0.66,-0.90003c0.24,-0.27 0.55,-0.57 0.95,-0.88c0.41,-0.32 0.9,-0.57 1.48,-0.75c0.58,-0.17 1.22,-0.26 1.94,-0.26c1.93,0 3.48,0.64 4.65,1.93c1.17,1.29003 1.76,3.18003 1.76,5.67003zM14.5593,10.5194v0.05h-0.04c0.02,-0.01 0.03,-0.03 0.04,-0.05z"></path></g></g></g><defs><rect id="path_0" x="0" y="0" width="26" height="25" /></defs></svg>