<svg width="17" height="20" viewBox="0 0 17 20" fill="none" xmlns="http://www.w3.org/2000/svg">
<path fill-rule="evenodd" clip-rule="evenodd" d="M7.0142 19.574C7.32252 19.858 7.71603 20 8.11359 20C8.51116 20 8.90467 19.858 9.21298 19.574C9.26628 19.5262 9.32279 19.4756 9.38222 19.4224C9.49922 19.3177 9.6275 19.2029 9.76471 19.0791C11.8621 17.2089 16.2272 13.3144 16.2272 8.11359C16.2272 3.63895 12.5882 0 8.11359 0C3.63895 0 0 3.63895 0 8.11359C0 13.3103 4.36511 17.2049 6.46653 19.0791C6.52966 19.1361 6.59052 19.1907 6.64912 19.2434C6.78257 19.3632 6.90426 19.4726 7.0142 19.574ZM1.62272 8.11359C1.62272 4.5355 4.5355 1.62272 8.11359 1.62272C11.6917 1.62272 14.6045 4.53144 14.6045 8.11359C14.6045 12.5647 10.6392 16.1191 8.71075 17.8476L8.6856 17.8702C8.46653 18.0609 8.27586 18.2353 8.11765 18.3854C7.95538 18.2353 7.76065 18.0609 7.54564 17.8702L7.54088 17.8659C5.61612 16.1483 1.62272 12.5845 1.62272 8.11359ZM4.0568 8.11359C4.0568 10.3489 5.8783 12.1704 8.11359 12.1704C10.3489 12.1704 12.1704 10.3489 12.1704 8.11359C12.1704 5.8783 10.3489 4.0568 8.11359 4.0568C5.8783 4.0568 4.0568 5.8783 4.0568 8.11359ZM5.67951 8.11359C5.67951 6.77079 6.77079 5.67951 8.11359 5.67951C9.45639 5.67951 10.5477 6.77079 10.5477 8.11359C10.5477 9.45639 9.45639 10.5477 8.11359 10.5477C6.77079 10.5477 5.67951 9.45639 5.67951 8.11359Z" fill="#8E8E8E"/>
</svg>
