<svg width="18.115234" height="18.115723" viewBox="0 0 18.1152 18.1157" fill="none" xmlns="http://www.w3.org/2000/svg" xmlns:xlink="http://www.w3.org/1999/xlink">
	<desc>
			Created with Pixso.
	</desc>
	<path id="合并" d="M12.9199 4.84033C12.9824 4.56055 13.0117 4.27393 13.0117 3.98096C13.0117 3.6875 12.9824 3.40088 12.9199 3.12158L12.9199 3.12109L12.9199 3.12109C12.8672 2.88623 12.7949 2.65625 12.6992 2.43115C12.6035 2.20459 12.4902 1.99072 12.3555 1.78906L12.3555 1.78906C12.209 1.56641 12.0391 1.35889 11.8457 1.16602C11.6543 0.973145 11.4453 0.803223 11.2227 0.65625C11.0215 0.523438 10.8086 0.408691 10.582 0.312988C10.3555 0.217773 10.127 0.144531 9.89062 0.0922852C9.61133 0.0307617 9.32422 0 9.03125 0C8.73828 0 8.45117 0.0307617 8.17188 0.0922852L8.17188 0.0922852C7.9375 0.144531 7.70703 0.217773 7.48242 0.312988C7.25586 0.408691 7.04102 0.523438 6.83984 0.65625L6.83984 0.65625C6.61719 0.803223 6.41016 0.973145 6.2168 1.16602C6.02344 1.35889 5.85352 1.56641 5.70703 1.78906C5.57422 1.99072 5.45898 2.20459 5.36328 2.43115C5.26953 2.65625 5.19531 2.88623 5.14258 3.12109C5.08203 3.40088 5.05078 3.6875 5.05078 3.98096C5.05078 4.27393 5.08203 4.56055 5.14258 4.84033C5.19531 5.0752 5.26953 5.30518 5.36328 5.53027C5.45898 5.75684 5.57422 5.9707 5.70703 6.17236L5.70703 6.17236L5.70703 6.17236C5.85352 6.39502 6.02344 6.60303 6.2168 6.79541C6.41016 6.98828 6.61719 7.1582 6.83984 7.30518C7.04102 7.43848 7.25586 7.55273 7.48242 7.64844C7.70703 7.74365 7.9375 7.81738 8.17188 7.86914C8.45117 7.93066 8.73828 7.96143 9.03125 7.96143C9.32422 7.96143 9.61133 7.93066 9.89062 7.86914C10.127 7.81738 10.3555 7.74365 10.582 7.64844C10.8086 7.55273 11.0215 7.43848 11.2227 7.30518C11.4453 7.1582 11.6543 6.98828 11.8457 6.79541C12.0391 6.60303 12.209 6.39502 12.3555 6.17236C12.4902 5.9707 12.6035 5.75684 12.6992 5.53027C12.7949 5.30518 12.8691 5.0752 12.9199 4.84033ZM11.4492 3.41943L11.4492 3.41943C11.4922 3.60156 11.5117 3.78906 11.5117 3.98096C11.5117 4.17285 11.4922 4.35986 11.4492 4.54199C11.418 4.67969 11.373 4.81396 11.3184 4.94629C11.2598 5.08252 11.1914 5.21191 11.1113 5.33398C11.0176 5.47754 10.9102 5.61133 10.7852 5.73486C10.6621 5.85889 10.5293 5.96729 10.3848 6.06104C10.2637 6.14062 10.1328 6.20898 9.99805 6.26709C9.86523 6.32275 9.73047 6.3667 9.59375 6.39844C9.41016 6.44043 9.22461 6.46143 9.03125 6.46143C8.83984 6.46143 8.65234 6.44043 8.4707 6.39844L8.4707 6.39844C8.33203 6.3667 8.19922 6.32275 8.06641 6.26709C7.92969 6.20898 7.80078 6.14062 7.67773 6.06104C7.53516 5.96729 7.40039 5.85889 7.27734 5.73486C7.1543 5.61133 7.04492 5.47754 6.95117 5.33398L6.95117 5.33398L6.95117 5.33398C6.87109 5.21191 6.80273 5.08252 6.74609 4.94629C6.68945 4.81445 6.64648 4.67969 6.61328 4.54199L6.61328 4.54199C6.57227 4.35986 6.55078 4.17285 6.55078 3.98096C6.55078 3.78906 6.57227 3.60156 6.61328 3.41943L6.61328 3.41943C6.64648 3.28223 6.68945 3.14746 6.74609 3.01514C6.80273 2.87891 6.87109 2.74951 6.95117 2.62744C7.04492 2.48389 7.1543 2.35059 7.27734 2.22656C7.40039 2.10303 7.53516 1.99414 7.67773 1.90088L7.67969 1.90039C7.80078 1.8208 7.92969 1.75244 8.06641 1.69482C8.19922 1.63867 8.33203 1.59521 8.4707 1.56299C8.65234 1.521 8.83984 1.5 9.03125 1.5C9.22266 1.5 9.41016 1.521 9.59375 1.56299L9.59375 1.56299C9.73047 1.59521 9.86523 1.63867 9.99805 1.69482C10.1328 1.75244 10.2637 1.8208 10.3848 1.90088C10.5293 1.99414 10.6621 2.10303 10.7852 2.22656C10.9102 2.35059 11.0176 2.48389 11.1113 2.62744L11.1113 2.62744C11.1914 2.74951 11.2598 2.87891 11.3184 3.01514C11.373 3.14746 11.418 3.28223 11.4492 3.41943ZM0.462891 18.061C0.373047 18.0244 0.292969 17.9692 0.21875 17.896C0.0722656 17.7495 0 17.5728 0 17.3657L0 16.812C0 16.1616 0.00195312 15.7017 0.00585938 15.4307C0.0136719 14.9878 0.0292969 14.6191 0.0527344 14.3257C0.0820312 13.9731 0.126953 13.6641 0.189453 13.3989C0.259766 13.1001 0.357422 12.8271 0.484375 12.5801C0.589844 12.3711 0.712891 12.1729 0.847656 11.9854L0.847656 11.9854C0.984375 11.7979 1.13477 11.6211 1.30078 11.4556C1.4668 11.2896 1.64258 11.1387 1.83008 11.0024C2.01758 10.8662 2.2168 10.7451 2.42578 10.6387C2.67188 10.5127 2.94531 10.4146 3.24414 10.3442C3.50977 10.2817 3.81836 10.2358 4.17188 10.207C4.46484 10.1831 4.83398 10.1675 5.27734 10.1606C5.54688 10.1562 6.00781 10.1543 6.6582 10.1543L11.457 10.1543C12.1074 10.1543 12.5684 10.1562 12.8379 10.1606C13.2812 10.1675 13.6504 10.1831 13.9434 10.207C14.2969 10.2358 14.6055 10.2817 14.8711 10.3442C15.1699 10.4146 15.4434 10.5127 15.6895 10.6387C15.8984 10.7451 16.0977 10.8662 16.2852 11.0024C16.4707 11.1387 16.6484 11.2896 16.8145 11.4556C16.9805 11.6211 17.1309 11.7979 17.2676 11.9849C17.4043 12.1724 17.5254 12.3706 17.6309 12.5801C17.7578 12.8271 17.8555 13.1001 17.9258 13.3989C17.9883 13.6641 18.0332 13.9731 18.0625 14.3257C18.0859 14.6191 18.1016 14.9878 18.1094 15.4307C18.1133 15.7017 18.1152 16.1621 18.1152 16.812L18.1152 17.3657C18.1152 17.5728 18.043 17.7495 17.8965 17.896C17.75 18.0425 17.5723 18.1157 17.3652 18.1157L0.75 18.1157C0.646484 18.1157 0.550781 18.0977 0.462891 18.061ZM16.6152 16.6157L1.5 16.6157C1.5 16.0767 1.50195 15.6895 1.50586 15.4546C1.51172 15.0439 1.52734 14.7085 1.54688 14.4478C1.57031 14.1704 1.60547 13.9351 1.65039 13.7427C1.69336 13.561 1.75 13.4004 1.82031 13.2607C1.89062 13.1226 1.9707 12.9912 2.0625 12.8672C2.15234 12.7427 2.25195 12.626 2.36133 12.5161C2.47266 12.4062 2.58984 12.3062 2.71289 12.2158L2.71289 12.2158C2.83789 12.1255 2.96875 12.0454 3.10742 11.9751C3.24609 11.9038 3.40625 11.8467 3.58789 11.8042C3.78125 11.7588 4.01562 11.7246 4.29297 11.7021C4.55469 11.6807 4.89062 11.667 5.30078 11.6606C5.5625 11.6562 6.01562 11.6543 6.6582 11.6543L11.457 11.6543C12.0996 11.6543 12.5527 11.6562 12.8145 11.6606C13.2246 11.667 13.5605 11.6807 13.8223 11.7021C14.0996 11.7246 14.334 11.7588 14.5273 11.8042C14.709 11.8467 14.8691 11.9038 15.0098 11.9751C15.1465 12.0454 15.2773 12.1255 15.4023 12.2158C15.5273 12.3062 15.6445 12.4062 15.7539 12.5161C15.8633 12.626 15.9629 12.7432 16.0547 12.8677C16.1445 12.9917 16.2246 13.1226 16.2949 13.2607C16.3652 13.4004 16.4219 13.561 16.4648 13.7427C16.5117 13.9351 16.5449 14.1704 16.5684 14.4478C16.5898 14.7085 16.6035 15.0439 16.6094 15.4546C16.6133 15.6895 16.6152 16.0767 16.6152 16.6157Z" clip-rule="evenodd" fill-rule="evenodd" fill="#808080" fill-opacity="1.000000"/>
	<defs/>
</svg>
