<svg width="22.040039" height="22.000000" viewBox="0 0 22.04 22" fill="none" xmlns="http://www.w3.org/2000/svg" xmlns:xlink="http://www.w3.org/1999/xlink">
	<desc>
			Created with Pixso.
	</desc>
	<path id="path" d="M21.6655 19.8165L18.0585 16.2079C19.3666 14.508 20.1514 12.3853 20.1514 10.0799C20.1514 4.52051 15.63 0 10.0757 0C4.52136 0 0 4.52304 0 10.0827C0 15.6421 4.51868 20.1626 10.0757 20.1626C12.4064 20.1626 14.5494 19.359 16.2589 18.024L19.8578 21.6245C20.1063 21.8731 20.434 22 20.7616 22C21.0894 22 21.417 21.8757 21.6655 21.6245C22.1649 21.1251 22.1649 20.316 21.6655 19.8165ZM2.55518 10.0827C2.55518 5.93491 5.92981 2.55899 10.0757 2.55899C14.2216 2.55899 17.5961 5.93491 17.5961 10.0827C17.5961 14.2304 14.2216 17.6064 10.0757 17.6064C5.92981 17.6064 2.55518 14.2304 2.55518 10.0827Z" fill-rule="nonzero" fill="#000000"/>
	<defs/>
</svg>
