<svg xmlns="http://www.w3.org/2000/svg" xmlns:xlink="http://www.w3.org/1999/xlink" width="17.95721435546875" height="17.9984130859375" viewBox="0 0 17.95721435546875 17.9984130859375" fill="none"><path id="分组 1" fill-rule="evenodd" style="fill:#FFFFFF" opacity="1" d="M17.6197,17.6609c-0.45,0.45 -1.13,0.45 -1.58,0l-3.49,-3.5c-3.04996,2.26 -7.22996,2.15 -10.04996,-0.45c-3.16,-2.93 -3.38,-8.12005 -0.34,-11.28005c3.05,-3.16 8.12996,-3.28 11.28996,-0.12c2.82,2.83 3.04,7.23 0.67,10.27005l3.5,3.5c0.45,0.45 0.45,1.13 0,1.58zM3.17811,4.57215c-1.47,1.92 -1.47,4.74 0,6.65995c2.26,3.16 6.87999,3.16 9.13999,0c1.47,-2.02995 1.47,-4.73995 0,-6.65995c-2.26,-3.16 -6.87999,-3.16 -9.13999,0z"></path></svg>