<svg width="22.040039" height="22.000000" viewBox="0 0 22.04 22" fill="none" xmlns="http://www.w3.org/2000/svg" xmlns:xlink="http://www.w3.org/1999/xlink">
	<desc>
			Created with Pixso.
	</desc>
	<path id="path" d="M21.6655 19.8165L18.0586 16.2079C19.3667 14.508 20.1514 12.3853 20.1514 10.0799C20.1514 4.52051 15.6304 0 10.0757 0C4.52148 0 0 4.52304 0 10.0827C0 15.6421 4.51904 20.1626 10.0757 20.1626C12.4062 20.1626 14.5493 19.359 16.2593 18.024L19.8579 21.6245C20.1064 21.8731 20.4341 22 20.7617 22C21.0894 22 21.417 21.8757 21.6655 21.6245C22.165 21.1251 22.165 20.316 21.6655 19.8165ZM2.55518 10.0827C2.55518 5.93491 5.92969 2.55899 10.0757 2.55899C14.2217 2.55899 17.5962 5.93491 17.5962 10.0827C17.5962 14.2304 14.2217 17.6064 10.0757 17.6064C5.92969 17.6064 2.55518 14.2304 2.55518 10.0827Z" fill-rule="nonzero" fill="#000000"/>
	<defs/>
</svg>
