<svg width="20" height="20" viewBox="0 0 20 20" fill="none" xmlns="http://www.w3.org/2000/svg">
<path fill-rule="evenodd" clip-rule="evenodd" d="M17.8009 9.16356C17.8009 4.10954 13.807 0 8.90045 0C3.99394 0 0 4.11184 0 9.16606C0 14.2201 3.99166 18.3296 8.90045 18.3296C10.9593 18.3296 12.8524 17.5991 14.3625 16.3855L17.5416 19.6587C17.7612 19.8847 18.0506 20 18.34 20C18.6295 20 18.9189 19.887 19.1385 19.6587C19.5796 19.2046 19.5796 18.4691 19.1384 18.015L15.9522 14.7344C17.1077 13.1891 17.8009 11.2594 17.8009 9.16356V9.16356ZM15.5435 9.16611C15.5435 12.9368 12.5626 16.0058 8.90031 16.0058C5.23801 16.0058 2.25697 12.9368 2.25697 9.16611C2.25697 5.39541 5.23801 2.32638 8.90031 2.32638C12.5626 2.32638 15.5435 5.39541 15.5435 9.16611V9.16611Z" fill="black"/>
</svg>
