<svg width="24.794891" height="20.004883" viewBox="0 0 24.7949 20.0049" fill="none" xmlns="http://www.w3.org/2000/svg" xmlns:xlink="http://www.w3.org/1999/xlink">
	<desc>
			Created with Pixso.
	</desc>
	<path id="合并" d="M19.8361 7.42871C19.8361 3.3252 16.5056 0 12.3975 0C8.28931 0 4.95905 3.3252 4.95905 7.42871C2.22031 7.42871 0 9.64551 0 12.3809C0 15.1162 2.22031 17.333 4.95905 17.333L7.43857 17.333L7.43857 15.3516L4.95905 15.3516C3.31842 15.3516 1.98361 14.0195 1.98361 12.3809C1.98361 10.7422 3.31842 9.40918 4.95905 9.40918L6.94266 9.40918L6.94266 7.42871C6.94266 4.4248 9.38962 1.98047 12.3975 1.98047C15.4054 1.98047 17.8524 4.4248 17.8524 7.42871L17.8524 9.40918L19.8361 9.40918C21.4768 9.40918 22.8113 10.7422 22.8113 12.3809C22.8113 14.0195 21.4768 15.3516 19.8361 15.3516L17.3565 15.3516L17.3565 17.333L19.8361 17.333C22.5744 17.333 24.7949 15.1162 24.7949 12.3809C24.7949 9.64551 22.5744 7.42871 19.8361 7.42871ZM7.02332 13.2988L12.3814 7.54395L17.7408 13.2988L16.1807 14.75L13.4979 11.8682L13.4979 20.0049L11.2663 20.0049L11.2663 11.8672L8.58365 14.75L7.02332 13.2988Z" clip-rule="evenodd" fill-rule="evenodd" fill="#040000" fill-opacity="1.000000"/>
	<defs/>
</svg>
