<svg xmlns="http://www.w3.org/2000/svg" xmlns:xlink="http://www.w3.org/1999/xlink" width="22.0400390625" height="25.84426969625061" viewBox="0 0 22.0400390625 25.84426969625061" fill="none"><g opacity="1"  transform="translate(0 0)  rotate(0)"><mask id="bg-mask-0" fill="white"><use xlink:href="#path_0"></use></mask><g mask="url(#bg-mask-0)" ><path id="分组 1" fill-rule="evenodd" style="fill:#000000" opacity="1" d="M11.02,0c6.08,0 11.02,4.96 11.02,11.08c0,4.08 -3.68,9 -11.02,14.76c-7.34,-5.76 -11.02,-10.68 -11.02,-14.76c0,-6.12 4.93,-11.08 11.02,-11.08zM7.34705,11.0762c0,2.04 1.64,3.69 3.66995,3.69c2.03,0 3.67,-1.65 3.67,-3.69c0,-2.04003 -1.64,-3.69003 -3.67,-3.69003c-2.01995,0 -3.66995,1.65 -3.66995,3.69003z"></path></g></g><defs><rect id="path_0" x="0" y="0" width="22.038378673955425" height="25.84426969625061" /></defs></svg>