<svg width="12.170654" height="12.015152" viewBox="0 0 12.1707 12.0152" fill="none" xmlns="http://www.w3.org/2000/svg" xmlns:xlink="http://www.w3.org/1999/xlink">
	<desc>
			Created with Pixso.
	</desc>
	<path id="path" d="M11.8145 4.55491C10.6271 3.57408 8.93506 2.1177 6.76807 0.245207C6.3822 -0.0817356 5.78845 -0.0817356 5.40259 0.245207C3.2356 2.1177 1.54358 3.57408 0.356201 4.55491C0.148438 4.76296 0 5.03046 0 5.29796C0 5.83296 0.445312 6.27879 0.979614 6.27879L1.63269 6.27879L1.63269 11.2721C1.63269 11.6882 1.95923 12.0152 2.37476 12.0152L4.60107 12.0152C5.01672 12.0152 5.34326 11.6882 5.34326 11.2721L5.34326 8.38906L6.82739 8.38906L6.82739 11.2721C6.82739 11.6882 7.15393 12.0152 7.56958 12.0152L9.7959 12.0152C10.2115 12.0152 10.538 11.6882 10.538 11.2721L10.538 6.27879L11.191 6.27879C11.7255 6.27879 12.1707 5.83296 12.1707 5.29796C12.1707 5.00074 12.0222 4.73324 11.8145 4.55491ZM11.191 5.38713L10.3896 5.38713C9.974 5.38713 9.64746 5.71407 9.64746 6.13018L9.64746 11.1235L7.71802 11.1235L7.71802 8.27017C7.71802 7.85406 7.39148 7.52712 6.97583 7.52712L5.19482 7.52712C4.77917 7.52712 4.45264 7.85406 4.45264 8.27017L4.45264 11.1532L2.52319 11.1532L2.52319 6.13018C2.52319 5.71407 2.19666 5.38713 1.78101 5.38713L0.979614 5.38713C0.979614 5.35741 0.920166 5.23852 0.920166 5.2088C2.10754 4.22797 3.79956 2.77159 5.96655 0.899094C6.026 0.839649 6.11499 0.839649 6.17444 0.899094C8.34131 2.77158 10.0333 4.22797 11.2207 5.2088C11.2505 5.29796 11.2207 5.38713 11.191 5.38713Z" fill-rule="nonzero" fill="#666666"/>
	<defs/>
</svg>
