<svg width="16.470703" height="20.000000" viewBox="0 0 16.4707 20" fill="none" xmlns="http://www.w3.org/2000/svg" xmlns:xlink="http://www.w3.org/1999/xlink">
	<desc>
			Created with Pixso.
	</desc>
	<path id="path" d="M8.23633 20C2.70703 16 0 12.1177 0 8.23535C0 3.64697 3.64648 0 8.23633 0C12.8242 0 16.4707 3.64697 16.4707 8.23535C16.4707 12.1177 13.7656 16 8.23633 20ZM8.23633 16.7061C12.1172 13.7646 14.1172 10.9414 14.1172 8.23535C14.1172 4.94141 11.5293 2.35303 8.23633 2.35303C4.94141 2.35303 2.35352 4.94141 2.35352 8.23535C2.35352 10.9414 4.35352 13.7646 8.23633 16.7061ZM8.23633 11.7646C6.23633 11.7646 4.70703 10.2354 4.70703 8.23535C4.70703 6.23535 6.23633 4.70605 8.23633 4.70605C10.2363 4.70605 11.7656 6.23535 11.7656 8.23535C11.7656 10.2354 10.2363 11.7646 8.23633 11.7646ZM8.23633 9.41211C8.94141 9.41211 9.41211 8.94141 9.41211 8.23535C9.41211 7.52979 8.94141 7.05908 8.23633 7.05908C7.5293 7.05908 7.05859 7.52979 7.05859 8.23535C7.05859 8.94141 7.5293 9.41211 8.23633 9.41211Z" fill-rule="nonzero" fill="#8E8E8E"/>
	<defs/>
</svg>
