<svg width="16.000000" height="12.571289" viewBox="0 0 16 12.5713" fill="none" xmlns="http://www.w3.org/2000/svg" xmlns:xlink="http://www.w3.org/1999/xlink">
	<desc>
			Created with Pixso.
	</desc>
	<path id="path" d="M0 0L0 12.5713L16 12.5713L16 0L0 0ZM14.4762 10.9712L1.5238 10.9712L1.5238 1.52393L14.4762 1.52393L14.4762 10.9712ZM5.71429 7.61914C6.93332 7.61914 7.84763 8.60938 7.84763 9.75244L9.37143 9.75244C9.37143 8.45703 8.6857 7.31445 7.61905 6.62842C7.9238 6.24756 8.15237 5.71436 8.15237 5.18066C8.15237 3.80957 7.08572 2.74268 5.71429 2.74268C4.34286 2.74268 3.27618 3.80957 3.27618 5.18066C3.27618 5.71436 3.50476 6.24756 3.80951 6.62842C2.74286 7.31445 2.05713 8.45703 2.05713 9.75244L3.58096 9.75244C3.50476 8.5332 4.49524 7.61914 5.71429 7.61914ZM4.79999 5.18066C4.79999 4.64746 5.18094 4.2666 5.71429 4.2666C6.24762 4.2666 6.62857 4.64746 6.62857 5.18066C6.62857 5.71436 6.24762 6.09521 5.71429 6.09521C5.18094 6.09521 4.79999 5.63818 4.79999 5.18066ZM8.8381 3.42871L13.7143 3.42871L13.7143 4.95215L8.8381 4.95215L8.8381 3.42871ZM10.2857 6.62842L13.6381 6.62842L13.6381 8.15234L10.2857 8.15234L10.2857 6.62842Z" fill-rule="nonzero" fill="#000000"/>
	<defs/>
</svg>
