<svg width="20.251953" height="18.000000" viewBox="0 0 20.252 18" fill="none" xmlns="http://www.w3.org/2000/svg" xmlns:xlink="http://www.w3.org/1999/xlink">
	<desc>
			Created with Pixso.
	</desc>
	<path id="path" d="M4.73242 18C4.4668 18 4.20703 17.8955 4.0332 17.7036L0.199219 13.4966C-0.0898438 13.1782 -0.0625 12.7168 0.263672 12.4272L4.12891 8.99072C4.44336 8.71045 4.94141 8.67725 5.30078 8.9126L8.21094 10.8247C9.70117 9.79883 11.0215 8.62354 12.1758 7.29932L10.0254 4.71289C9.76172 4.39404 9.79883 3.95117 10.1133 3.67139L13.9805 0.234863C14.3047 -0.0546875 14.8242 -0.0795898 15.1816 0.178711L19.9004 3.57471C19.9844 3.63379 20.0566 3.70459 20.1133 3.78418C20.1484 3.83545 20.1777 3.88965 20.1992 3.94678C20.2734 4.13574 20.2676 4.32373 20.1836 4.50879C19.7188 5.50879 19.1758 6.48828 18.5742 7.41309C17.3574 9.29639 15.8633 11.0308 14.1367 12.5659C12.4082 14.1011 10.457 15.4287 8.33594 16.5122C7.29883 17.0464 6.20117 17.5269 5.07617 17.9395C4.9668 17.98 4.85156 18 4.73242 18ZM2.10938 13.0488L5.00391 16.2266C5.83984 15.897 6.65625 15.5283 7.4375 15.1265C9.42383 14.1118 11.248 12.8701 12.8633 11.4346C14.4785 9.99902 15.875 8.37695 17.0156 6.61377C17.4609 5.92578 17.8867 5.18311 18.2539 4.44922L14.6797 1.87549L11.9336 4.31543L14.0234 6.82764C14.2559 7.10889 14.2578 7.49219 14.0273 7.77441C12.5488 9.57568 10.7715 11.1553 8.74609 12.4688C8.42773 12.6753 7.99609 12.6738 7.67969 12.4658L4.85352 10.6089L2.10938 13.0488Z" fill-rule="nonzero" fill="#8E8E8E"/>
	<defs/>
</svg>
