<svg width="14.647217" height="12.037218" viewBox="0 0 14.6472 12.0372" fill="none" xmlns="http://www.w3.org/2000/svg" xmlns:xlink="http://www.w3.org/1999/xlink">
	<desc>
			Created with Pixso.
	</desc>
	<path id="path" d="M13.8882 10.7361L7.95288 10.7361C7.37305 10.7326 6.87915 10.5545 6.4707 10.2018C6.06226 9.84923 5.85791 9.42447 5.85791 8.92758L5.85791 2.09678L9.37964 5.05028C9.52588 5.17745 9.70288 5.23817 9.91113 5.23244C10.1199 5.2399 10.2971 5.17919 10.4424 5.05028C10.8044 4.74236 10.8044 4.43443 10.4424 4.1265L5.88843 0.223185C5.53418 -0.0743942 5.17993 -0.0743942 4.82568 0.223185L0.271729 4.19156C-0.0905762 4.49948 -0.0905762 4.80741 0.271729 5.11534C0.625977 5.41292 0.980225 5.41292 1.33423 5.11534L4.33984 2.357L4.33984 8.92758C4.33984 9.78375 4.69238 10.5152 5.39722 11.1218C6.10205 11.7285 6.95386 12.0336 7.95288 12.0372L13.8882 12.0372C14.3943 12.0372 14.6472 11.8204 14.6472 11.3867C14.6472 10.953 14.3943 10.7361 13.8882 10.7361Z" fill-rule="nonzero" fill="#4980E3"/>
	<defs/>
</svg>
