<svg width="21" height="21" viewBox="0 0 21 21" fill="none" xmlns="http://www.w3.org/2000/svg">
<path fill-rule="evenodd" clip-rule="evenodd" d="M11.1543 19.2214L11.167 19.2595C11.4338 19.8693 11.7514 20.4283 12.0944 20.8984L12.1706 21H0.889292C0.393829 21 0 20.5935 0 20.1107V18.2813C0 16.4392 0.558984 14.6479 1.62613 13.1107C2.66788 11.6116 4.11615 10.4682 5.7931 9.80762L5.84392 9.79492L5.7931 9.75681C4.45916 8.71506 3.68421 7.15245 3.68421 5.46279C3.68421 2.45191 6.14882 0 9.18512 0C12.2214 0 14.686 2.45191 14.686 5.46279C14.686 7.15245 13.9111 8.71506 12.5771 9.75681L12.5263 9.79492L12.5771 9.82033C12.5962 9.82668 12.6121 9.83303 12.6279 9.83938C12.6438 9.84574 12.6597 9.85209 12.6788 9.85844C12.7615 9.89155 12.8443 9.93005 12.9236 9.96692C12.966 9.98664 13.0073 10.0059 13.0472 10.0236L13.1234 10.0617L13.0599 10.1252C12.6788 10.4936 12.3103 10.9256 11.9673 11.4211L11.9419 11.4592L11.8911 11.4465C11.0272 11.1034 10.1125 10.9256 9.18512 10.9256C5.10708 10.9256 1.77858 14.2287 1.77858 18.2813V19.2214H11.1543ZM9.18512 1.77858C7.13975 1.77858 5.4755 3.43013 5.4755 5.46279C5.4755 7.49546 7.15245 9.17241 9.19782 9.17241C11.2432 9.17241 12.9074 7.52087 12.9074 5.4882C12.9074 4.49728 12.5136 3.56987 11.8149 2.87114C11.1034 2.15971 10.176 1.77858 9.18512 1.77858ZM12.7168 17.5442H19.107C19.6152 17.5442 20.009 17.9508 20.009 18.4462C20.009 18.9417 19.6025 19.3482 19.107 19.3482H12.7168C12.2214 19.3482 11.8148 18.9417 11.8148 18.4462C11.8148 17.9508 12.2214 17.5442 12.7168 17.5442ZM12.7168 14.7874H19.107C19.6152 14.7874 20.0217 15.194 20.009 15.6894C20.009 16.1849 19.6025 16.5914 19.107 16.5914H12.7168C12.2214 16.5914 11.8148 16.1849 11.8148 15.6894C11.8148 15.194 12.2214 14.7874 12.7168 14.7874ZM12.7168 12.0306H19.107C19.6152 12.0306 20.0217 12.4372 20.009 12.9326C20.009 13.4281 19.6025 13.8346 19.107 13.8346H12.7168C12.2214 13.8346 11.8148 13.4281 11.8148 12.9326C11.8148 12.4372 12.2214 12.0306 12.7168 12.0306Z" fill="#040000"/>
</svg>
