<svg width="24.794922" height="20.000977" viewBox="0 0 24.7949 20.001" fill="none" xmlns="http://www.w3.org/2000/svg" xmlns:xlink="http://www.w3.org/1999/xlink">
	<desc>
			Created with Pixso.
	</desc>
	<path id="合并" d="M19.8359 7.42871C19.8359 3.3252 16.5059 0 12.3975 0C8.28955 0 4.95898 3.3252 4.95898 7.42871C2.22021 7.42871 0 9.64551 0 12.3809C0 15.1162 2.22021 17.333 4.95898 17.333L7.43848 17.333L7.43848 15.3516L4.95898 15.3516C3.31836 15.3516 1.9834 14.0195 1.9834 12.3809C1.9834 10.7422 3.31836 9.40918 4.95898 9.40918L6.94287 9.40918L6.94287 7.42871C6.94287 4.4248 9.38965 1.98047 12.3975 1.98047C15.4053 1.98047 17.8525 4.4248 17.8525 7.42871L17.8525 9.40918L19.8359 9.40918C21.4766 9.40918 22.811 10.7422 22.811 12.3809C22.811 14.0195 21.4766 15.3516 19.8359 15.3516L17.3564 15.3516L17.3564 17.333L19.8359 17.333C22.5742 17.333 24.7949 15.1162 24.7949 12.3809C24.7949 9.64551 22.5742 7.42871 19.8359 7.42871ZM7.02295 13.2949L12.3813 7.54004L17.7407 13.2949L16.1807 14.7461L13.4976 11.8643L13.4976 20.001L11.2661 20.001L11.2661 11.8633L8.5835 14.7461L7.02295 13.2949Z" clip-rule="evenodd" fill-rule="evenodd" fill="#FFFFFF" fill-opacity="1.000000"/>
	<defs/>
</svg>
